HIERARCHY
ROOT Hips
{
  OFFSET 5.80788e-005 67.184 3.4734
  CHANNELS 6 Xposition Yposition Zposition Zrotation Xrotation Yrotation
  JOINT Chest
  {
    OFFSET 0 8.7983 -4.7612
    CHANNELS 6 Xposition Yposition Zposition Zrotation Xrotation Yrotation
    JOINT Chest2
    {
      OFFSET 0 8.0291 0.4195
      CHANNELS 6 Xposition Yposition Zposition Zrotation Xrotation Yrotation
      JOINT Chest3
      {
        OFFSET 0 9.9351 -2.2114
        CHANNELS 6 Xposition Yposition Zposition Zrotation Xrotation Yrotation
        JOINT Neck
        {
          OFFSET 0 22.3885 -0.4656
          CHANNELS 6 Xposition Yposition Zposition Zrotation Xrotation Yrotation
          JOINT Head
          {
            OFFSET -0.0001 12.643 3.4389
            CHANNELS 6 Xposition Yposition Zposition Zrotation Xrotation Yrotation
            End Site
            {
              OFFSET 0.0001 17.6655 0.5274
            }
          }
        }
        JOINT LeftCollar
        {
          OFFSET 2.2603 21.606 7.4023
          CHANNELS 6 Xposition Yposition Zposition Zrotation Xrotation Yrotation
          JOINT LeftShoulder
          {
            OFFSET 13.5163 -1.1332 -5.0146
            CHANNELS 6 Xposition Yposition Zposition Zrotation Xrotation Yrotation
            JOINT LeftElbow
            {
              OFFSET -0.0995 -28.05 -0.2431
              CHANNELS 6 Xposition Yposition Zposition Zrotation Xrotation Yrotation
              JOINT LeftWrist
              {
                OFFSET 0.0679 -23.3996 -0.1402
                CHANNELS 6 Xposition Yposition Zposition Zrotation Xrotation Yrotation
                JOINT LeftFinger1
                {
                  OFFSET 0.7932 -9.069 2.5189
                  CHANNELS 6 Xposition Yposition Zposition Zrotation Xrotation Yrotation
                  JOINT LeftFinger11
                  {
                    OFFSET -0.8272 -3.3923 0.5977
                    CHANNELS 6 Xposition Yposition Zposition Zrotation Xrotation Yrotation
                    JOINT LeftFinger12
                    {
                      OFFSET -0.5649 -2.3158 0.4082
                      CHANNELS 6 Xposition Yposition Zposition Zrotation Xrotation Yrotation
                      End Site
                      {
                        OFFSET -0.4919 -1.6479 0.2673
                      }
                    }
                  }
                }
                JOINT LeftFinger2
                {
                  OFFSET 0.9159 -9.2044 0.2193
                  CHANNELS 6 Xposition Yposition Zposition Zrotation Xrotation Yrotation
                  JOINT LeftFinger21
                  {
                    OFFSET 0.0117 -4.1944 -0.0248
                    CHANNELS 6 Xposition Yposition Zposition Zrotation Xrotation Yrotation
                    JOINT LeftFinger22
                    {
                      OFFSET 0.0071 -2.3249 -0.0142
                      CHANNELS 6 Xposition Yposition Zposition Zrotation Xrotation Yrotation
                      End Site
                      {
                        OFFSET -0.1475 -2.0882 0.0028
                      }
                    }
                  }
                }
                JOINT LeftFinger3
                {
                  OFFSET 0.6113 -8.7231 -2.0637
                  CHANNELS 6 Xposition Yposition Zposition Zrotation Xrotation Yrotation
                  JOINT LeftFinger31
                  {
                    OFFSET -0.1927 -3.8059 -0.2383
                    CHANNELS 6 Xposition Yposition Zposition Zrotation Xrotation Yrotation
                    JOINT LeftFinger32
                    {
                      OFFSET -0.1091 -2.1688 -0.1362
                      CHANNELS 6 Xposition Yposition Zposition Zrotation Xrotation Yrotation
                      End Site
                      {
                        OFFSET -0.2358 -1.9176 -0.0906
                      }
                    }
                  }
                }
                JOINT LeftFinger4
                {
                  OFFSET -0.6151 -8.0947 -3.5641
                  CHANNELS 6 Xposition Yposition Zposition Zrotation Xrotation Yrotation
                  JOINT LeftFinger41
                  {
                    OFFSET -0.4882 -2.341 -0.6462
                    CHANNELS 6 Xposition Yposition Zposition Zrotation Xrotation Yrotation
                    JOINT LeftFinger42
                    {
                      OFFSET -0.3575 -1.7167 -0.4742
                      CHANNELS 6 Xposition Yposition Zposition Zrotation Xrotation Yrotation
                      End Site
                      {
                        OFFSET -0.4187 -1.5237 -0.3496
                      }
                    }
                  }
                }
                JOINT LeftFinger0
                {
                  OFFSET -1.42 -1.8761 1.4223
                  CHANNELS 6 Xposition Yposition Zposition Zrotation Xrotation Yrotation
                  JOINT LeftFinger01
                  {
                    OFFSET -1.1471 -3.4929 2.6334
                    CHANNELS 6 Xposition Yposition Zposition Zrotation Xrotation Yrotation
                    JOINT LeftFinger02
                    {
                      OFFSET -0.823 -2.3 1.6571
                      CHANNELS 6 Xposition Yposition Zposition Zrotation Xrotation Yrotation
                      End Site
                      {
                        OFFSET -0.5822 -1.6914 1.1582
                      }
                    }
                  }
                }
              }
            }
          }
        }
        JOINT RightCollar
        {
          OFFSET -2.2603 21.606 7.4023
          CHANNELS 6 Xposition Yposition Zposition Zrotation Xrotation Yrotation
          JOINT RightShoulder
          {
            OFFSET -13.5187 -1.1334 -5.0155
            CHANNELS 6 Xposition Yposition Zposition Zrotation Xrotation Yrotation
            JOINT RightElbow
            {
              OFFSET 0.0994 -28.0499 -0.2431
              CHANNELS 6 Xposition Yposition Zposition Zrotation Xrotation Yrotation
              JOINT RightWrist
              {
                OFFSET -0.0679 -23.3996 -0.1402
                CHANNELS 6 Xposition Yposition Zposition Zrotation Xrotation Yrotation
                JOINT RightFinger1
                {
                  OFFSET -0.7932 -9.0691 2.5189
                  CHANNELS 6 Xposition Yposition Zposition Zrotation Xrotation Yrotation
                  JOINT RightFinger11
                  {
                    OFFSET 0.8272 -3.3923 0.5977
                    CHANNELS 6 Xposition Yposition Zposition Zrotation Xrotation Yrotation
                    JOINT RightFinger12
                    {
                      OFFSET 0.565 -2.3158 0.4082
                      CHANNELS 6 Xposition Yposition Zposition Zrotation Xrotation Yrotation
                      End Site
                      {
                        OFFSET 0.4919 -1.6479 0.2673
                      }
                    }
                  }
                }
                JOINT RightFinger2
                {
                  OFFSET -0.916 -9.2044 0.2193
                  CHANNELS 6 Xposition Yposition Zposition Zrotation Xrotation Yrotation
                  JOINT RightFinger21
                  {
                    OFFSET -0.0117 -4.1944 -0.0248
                    CHANNELS 6 Xposition Yposition Zposition Zrotation Xrotation Yrotation
                    JOINT RightFinger22
                    {
                      OFFSET -0.0071 -2.3249 -0.0142
                      CHANNELS 6 Xposition Yposition Zposition Zrotation Xrotation Yrotation
                      End Site
                      {
                        OFFSET 0.1475 -2.0882 0.0028
                      }
                    }
                  }
                }
                JOINT RightFinger3
                {
                  OFFSET -0.6113 -8.7231 -2.0637
                  CHANNELS 6 Xposition Yposition Zposition Zrotation Xrotation Yrotation
                  JOINT RightFinger31
                  {
                    OFFSET 0.1927 -3.8059 -0.2383
                    CHANNELS 6 Xposition Yposition Zposition Zrotation Xrotation Yrotation
                    JOINT RightFinger32
                    {
                      OFFSET 0.1091 -2.1688 -0.1362
                      CHANNELS 6 Xposition Yposition Zposition Zrotation Xrotation Yrotation
                      End Site
                      {
                        OFFSET 0.2358 -1.9176 -0.0906
                      }
                    }
                  }
                }
                JOINT RightFinger4
                {
                  OFFSET 0.6151 -8.0947 -3.564
                  CHANNELS 6 Xposition Yposition Zposition Zrotation Xrotation Yrotation
                  JOINT RightFinger41
                  {
                    OFFSET 0.4882 -2.341 -0.6462
                    CHANNELS 6 Xposition Yposition Zposition Zrotation Xrotation Yrotation
                    JOINT RightFinger42
                    {
                      OFFSET 0.3574 -1.7166 -0.4742
                      CHANNELS 6 Xposition Yposition Zposition Zrotation Xrotation Yrotation
                      End Site
                      {
                        OFFSET 0.4187 -1.5237 -0.3496
                      }
                    }
                  }
                }
                JOINT RightFinger0
                {
                  OFFSET 1.4199 -1.8761 1.4221
                  CHANNELS 6 Xposition Yposition Zposition Zrotation Xrotation Yrotation
                  JOINT RightFinger01
                  {
                    OFFSET 1.1472 -3.4929 2.6336
                    CHANNELS 6 Xposition Yposition Zposition Zrotation Xrotation Yrotation
                    JOINT RightFinger02
                    {
                      OFFSET 0.8229 -2.3 1.6571
                      CHANNELS 6 Xposition Yposition Zposition Zrotation Xrotation Yrotation
                      End Site
                      {
                        OFFSET 0.5822 -1.6914 1.1582
                      }
                    }
                  }
                }
              }
            }
          }
        }
      }
    }
  }
  JOINT RightHip
  {
    OFFSET -9.412 3.9771 -0.7758
    CHANNELS 6 Xposition Yposition Zposition Zrotation Xrotation Yrotation
    JOINT RightKnee
    {
      OFFSET -0.7531 -40.938 0
      CHANNELS 6 Xposition Yposition Zposition Zrotation Xrotation Yrotation
      JOINT RightAnkle
      {
        OFFSET 0 -40.1986 0
        CHANNELS 6 Xposition Yposition Zposition Zrotation Xrotation Yrotation
        JOINT RightToe
        {
          OFFSET 0 -4.4182 9.239
          CHANNELS 6 Xposition Yposition Zposition Zrotation Xrotation Yrotation
          End Site
          {
            OFFSET 0 0 6.1981
          }
        }
      }
    }
  }
  JOINT LeftHip
  {
    OFFSET 9.4119 3.9773 -0.7758
    CHANNELS 6 Xposition Yposition Zposition Zrotation Xrotation Yrotation
    JOINT LeftKnee
    {
      OFFSET 0.7532 -40.9383 0
      CHANNELS 6 Xposition Yposition Zposition Zrotation Xrotation Yrotation
      JOINT LeftAnkle
      {
        OFFSET 0 -40.1986 0
        CHANNELS 6 Xposition Yposition Zposition Zrotation Xrotation Yrotation
        JOINT LeftToe
        {
          OFFSET 0 -4.4182 9.239
          CHANNELS 6 Xposition Yposition Zposition Zrotation Xrotation Yrotation
          End Site
          {
            OFFSET 0 0 6.1981
          }
        }
      }
    }
  }
}
MOTION
Frames:	4
Frame Time:	0.0333333
-0.616879 17.0033 -32.2139 -0.000773985 -29.1355 179.998 0 8.7983 -4.7612 0.113285 0.662402 -0.292817 1.11022e-016 8.0291 0.4195 0.229978 1.32421 -0.587003 -2.22045e-016 9.9351 -2.2114 0.229976 1.3242 -0.586998 0 22.3885 -0.4656 9.3418e-007 -22.1493 4.25799e-005 -0.0001 12.643 3.4389 0.330472 0.124147 2.88759e-007 2.2603 21.606 7.4023 -23.4479 26.9767 -36.167 13.5163 -1.1332 -5.0146 47.8874 -8.29651 25.1888 -0.0995 -28.05 -0.2431 -0.990427 -36.2353 1.3623 0.0679 -23.3996 -0.1402 -9.64902 -5.4026 -2.16725 0.7932 -9.069 2.5189 1.59028e-015 -3.18055e-015 3.18055e-015 -0.8272 -3.3923 0.5977 -3.79375e-007 -1.95882e-006 -1.48994e-006 -0.5649 -2.3158 0.4082 -5.56597e-015 -1.59028e-015 6.36111e-015 0.9159 -9.2044 0.2193 1.59028e-015 -3.18055e-015 3.18055e-015 0.0117 -4.1944 -0.0248 -0.0128301 0.0023297 8.0189e-005 0.0071 -2.3249 -0.0142 -5.79702e-006 -2.88242e-006 4.67954e-007 0.6113 -8.7231 -2.0637 1.59028e-015 -3.18055e-015 3.18055e-015 -0.1927 -3.8059 -0.2383 -0.0160652 0.00299571 0.000855805 -0.1091 -2.1688 -0.1362 -1.59028e-015 -1.59028e-015 9.54166e-015 -0.6151 -8.0947 -3.5641 1.59028e-015 -3.18055e-015 3.18055e-015 -0.4882 -2.341 -0.6462 -0.0125571 0.00311184 0.00281223 -0.3575 -1.7167 -0.4742 5.56597e-015 3.18055e-015 -0 -1.42 -1.8761 1.4223 1.59028e-015 -3.18055e-015 3.18055e-015 -1.1471 -3.4929 2.6334 -3.79375e-007 -1.95882e-006 -1.48994e-006 -0.823 -2.3 1.6571 -5.56597e-015 -1.59028e-015 6.36111e-015 -2.2603 21.606 7.4023 39.4654 6.6793 -18.7053 -13.5187 -1.1334 -5.0155 -42.9295 14.3774 40.7583 0.0994 -28.0499 -0.2431 15.1844 -47.1844 -70.7868 -0.0679 -23.3996 -0.1402 33.4064 -9.99468 -46.14 -0.7932 -9.0691 2.5189 5.52976e-006 -1.93376e-006 3.93109e-006 0.8272 -3.3923 0.5977 3.18055e-015 -4.6605e-006 -0 0.565 -2.3158 0.4082 6.19056e-006 -9.42284e-006 -4.57756e-006 -0.916 -9.2044 0.2193 5.52976e-006 -1.93376e-006 3.93109e-006 -0.0117 -4.1944 -0.0248 0.0129646 0.00231632 -8.47451e-005 -0.0071 -2.3249 -0.0142 -4.77083e-015 -2.06736e-014 -0 -0.6113 -8.7231 -2.0637 5.52976e-006 -1.93376e-006 3.93109e-006 0.1927 -3.8059 -0.2383 0.0163384 0.00301964 -0.000880867 0.1091 -2.1688 -0.1362 -6.09646e-006 3.35226e-006 1.04739e-005 0.6151 -8.0947 -3.564 5.52976e-006 -1.93376e-006 3.93109e-006 0.4882 -2.341 -0.6462 0.0146208 0.00368573 -0.00326882 0.3574 -1.7166 -0.4742 3.18055e-015 -1.59028e-015 -9.54166e-015 1.4199 -1.8761 1.4221 5.52976e-006 -1.93376e-006 3.93109e-006 1.1472 -3.4929 2.6336 3.18055e-015 -4.6605e-006 -0 0.8229 -2.3 1.6571 6.19056e-006 -9.42284e-006 -4.57756e-006 -9.412 3.9771 -0.7758 -71.7081 -35.7396 -82.553 -0.7531 -40.938 0 -132.656 30.7641 157.206 0 -40.1986 -1.11022e-015 30.52 44.3731 -25.3217 -3.55271e-015 -4.4182 9.239 2.88164e-006 6.71594e-007 1.30741e-006 9.4119 3.9773 -0.7758 71.6202 -35.7175 82.4542 0.7532 -40.9383 0 132.573 30.8523 -157.15 0 -40.1986 1.33227e-015 -30.2317 43.8767 25.095 0 -4.4182 9.239 3.57242e-006 1.97315e-006 -3.43078e-006 
-0.61684 17.0221 -31.9555 -0.000774767 -29.1601 179.998 -1.11022e-016 8.7983 -4.7612 0.121135 0.827837 -0.292147 0 8.0291 0.4195 0.24653 1.65508 -0.58614 -2.22045e-016 9.9351 -2.2114 0.246529 1.65508 -0.586139 -2.22045e-016 22.3885 -0.4656 -2.10677e-007 -21.8075 2.35055e-005 -0.0001 12.643 3.4389 0.330472 0.124149 -3.99506e-007 2.2603 21.606 7.4023 -22.891 25.9155 -36.4852 13.5163 -1.1332 -5.0146 47.5827 -8.43964 25.1034 -0.0995 -28.05 -0.2431 -1.19353 -36.6007 1.236 0.0679 -23.3996 -0.1402 -9.54959 -5.10744 -1.99728 0.7932 -9.069 2.5189 1.82702e-006 -1.90007e-006 4.20324e-006 -0.8272 -3.3923 0.5977 -7.95139e-016 -1.75248e-006 -0 -0.5649 -2.3158 0.4082 2.38542e-015 -1.59028e-015 -0 0.9159 -9.2044 0.2193 1.82702e-006 -1.90007e-006 4.20324e-006 0.0117 -4.1944 -0.0248 -0.0127767 0.00231375 8.43661e-005 0.0071 -2.3249 -0.0142 1.59028e-015 3.18055e-015 -0 0.6113 -8.7231 -2.0637 1.82702e-006 -1.90007e-006 4.20324e-006 -0.1927 -3.8059 -0.2383 -0.0160665 0.00299482 0.000853208 -0.1091 -2.1688 -0.1362 0 0 -3.18055e-015 -0.6151 -8.0947 -3.5641 1.82702e-006 -1.90007e-006 4.20324e-006 -0.4882 -2.341 -0.6462 -0.0126593 0.00313352 0.00284782 -0.3575 -1.7167 -0.4742 -1.59028e-015 -2.22639e-014 3.18055e-015 -1.42 -1.8761 1.4223 1.82702e-006 -1.90007e-006 4.20324e-006 -1.1471 -3.4929 2.6334 -7.95139e-016 -1.75248e-006 -0 -0.823 -2.3 1.6571 2.38542e-015 -1.59028e-015 -0 -2.2603 21.606 7.4023 39.3161 6.76645 -17.9242 -13.5187 -1.1334 -5.0155 -43.0284 13.9335 40.7781 0.0994 -28.0499 -0.2431 15.1893 -47.1819 -70.7879 -0.0679 -23.3996 -0.1402 31.9771 -9.16112 -46.4291 -0.7932 -9.0691 2.5189 -7.51506e-007 -5.46039e-007 1.75782e-006 0.8272 -3.3923 0.5977 -1.8657e-006 1.27011e-006 2.18129e-006 0.565 -2.3158 0.4082 -6.89985e-007 -7.71317e-007 -4.88294e-007 -0.916 -9.2044 0.2193 -7.51506e-007 -5.46039e-007 1.75782e-006 -0.0117 -4.1944 -0.0248 0.0129509 0.00232356 -8.43435e-005 -0.0071 -2.3249 -0.0142 -6.22235e-008 -3.73294e-006 2.24612e-006 -0.6113 -8.7231 -2.0637 -7.51506e-007 -5.46039e-007 1.75782e-006 0.1927 -3.8059 -0.2383 0.0163162 0.00303823 -0.000873031 0.1091 -2.1688 -0.1362 -6.89994e-007 -7.69781e-007 -4.88329e-007 0.6151 -8.0947 -3.564 -7.51506e-007 -5.46039e-007 1.75782e-006 0.4882 -2.341 -0.6462 0.0145543 0.00367691 -0.00325297 0.3574 -1.7166 -0.4742 -1.86537e-006 8.49076e-007 2.18107e-006 1.4199 -1.8761 1.4221 -7.51506e-007 -5.46039e-007 1.75782e-006 1.1472 -3.4929 2.6336 -1.8657e-006 1.27011e-006 2.18129e-006 0.8229 -2.3 1.6571 -6.89985e-007 -7.71317e-007 -4.88294e-007 -9.412 3.9771 -0.7758 -71.9806 -36.2555 -82.7965 -0.7531 -40.938 1.42109e-014 -132.89 30.6629 157.297 0 -40.1986 -1.9984e-015 30.8772 44.4465 -25.4819 3.55271e-015 -4.4182 9.239 -5.15752e-006 2.96663e-006 2.18502e-006 9.4119 3.9773 -0.7758 71.8939 -36.2353 82.7006 0.7532 -40.9383 -7.10543e-015 132.811 30.7477 -157.245 0 -40.1986 1.55431e-015 -30.5868 43.9491 25.2567 0 -4.4182 9.239 -5.84395e-006 6.23094e-006 -8.77291e-007 
-0.616805 17.039 -31.7226 -0.000775548 -29.1847 179.998 0 8.7983 -4.7612 0.128173 0.97708 -0.29147 0 8.0291 0.4195 0.261372 1.95348 -0.58525 2.22045e-016 9.9351 -2.2114 0.261373 1.9535 -0.585252 -2.22045e-016 22.3885 -0.4656 1.15781e-006 -21.4655 -2.96295e-005 -0.0001 12.643 3.4389 0.330472 0.124147 1.50645e-007 2.2603 21.606 7.4023 -22.3985 24.956 -36.7586 13.5163 -1.1332 -5.0146 47.3079 -8.56781 25.0258 -0.0995 -28.05 -0.2431 -1.37793 -36.9297 1.12035 0.0679 -23.3996 -0.1402 -9.46088 -4.84153 -1.84478 0.7932 -9.069 2.5189 5.56597e-015 1.87895e-006 -0 -0.8272 -3.3923 0.5977 3.18055e-015 -2.70347e-014 3.18055e-015 -0.5649 -2.3158 0.4082 3.35457e-030 -3.02153e-014 6.36111e-015 0.9159 -9.2044 0.2193 5.56597e-015 1.87895e-006 -0 0.0117 -4.1944 -0.0248 -0.0128357 0.00233123 8.71917e-005 0.0071 -2.3249 -0.0142 -8.74653e-015 4.77083e-015 3.18055e-015 0.6113 -8.7231 -2.0637 5.56597e-015 1.87895e-006 -0 -0.1927 -3.8059 -0.2383 -0.0160383 0.0029988 0.000854038 -0.1091 -2.1688 -0.1362 -1.59028e-015 0 3.18055e-015 -0.6151 -8.0947 -3.5641 5.56597e-015 1.87895e-006 -0 -0.4882 -2.341 -0.6462 -0.0125765 0.00312379 0.00282005 -0.3575 -1.7167 -0.4742 -6.59381e-006 8.3133e-007 4.03633e-006 -1.42 -1.8761 1.4223 5.56597e-015 1.87895e-006 -0 -1.1471 -3.4929 2.6334 3.18055e-015 -2.70347e-014 3.18055e-015 -0.823 -2.3 1.6571 3.35457e-030 -3.02153e-014 6.36111e-015 -2.2603 21.606 7.4023 39.1807 6.84319 -17.2204 -13.5187 -1.1334 -5.0155 -43.1177 13.5326 40.7953 0.0994 -28.0499 -0.2431 15.1948 -47.1791 -70.789 -0.0679 -23.3996 -0.1402 30.6932 -8.40153 -46.6697 -0.7932 -9.06911 2.5189 -6.88183e-007 -1.59042e-006 -4.85632e-007 0.8272 -3.3923 0.5977 -8.38939e-006 1.19071e-005 6.10621e-006 0.565 -2.3158 0.4082 2.75273e-006 -1.56386e-006 1.94253e-006 -0.916 -9.20441 0.2193 -6.88183e-007 -1.59042e-006 -4.85632e-007 -0.0117 -4.1944 -0.0248 0.0129442 0.00232322 -7.40036e-005 -0.0071 -2.3249 -0.0142 1.0159e-006 5.08407e-006 4.79126e-006 -0.6113 -8.7231 -2.0637 -6.88183e-007 -1.59042e-006 -4.85632e-007 0.1927 -3.8059 -0.2383 0.0163471 0.00304682 -0.000862519 0.1091 -2.1688 -0.1362 -5.60571e-006 1.3973e-005 5.03092e-006 0.6151 -8.0947 -3.564 -6.88183e-007 -1.59042e-006 -4.85632e-007 0.4882 -2.341 -0.6462 0.0145505 0.00368072 -0.00325908 0.3574 -1.7166 -0.4742 3.44094e-006 1.65543e-008 2.42834e-006 1.4199 -1.8761 1.4221 -6.88183e-007 -1.59042e-006 -4.85632e-007 1.1472 -3.4929 2.6336 -8.38939e-006 1.19071e-005 6.10621e-006 0.8229 -2.3 1.6571 2.75273e-006 -1.56386e-006 1.94253e-006 -9.412 3.9771 -0.7758 -72.2302 -36.7186 -83.0193 -0.7531 -40.938 7.10543e-015 -133.099 30.5712 157.379 -3.55271e-015 -40.1986 -2.22045e-016 31.1993 44.512 -25.627 0 -4.4182 9.239 -1.11319e-014 -1.27222e-014 -3.18055e-015 9.4119 3.9773 -0.7758 72.1415 -36.7032 82.9243 0.7532 -40.9383 0 133.027 30.6543 -157.329 -7.10543e-015 -40.1986 -8.88178e-016 -30.907 44.0136 25.403 0 -4.4182 9.239 3.18055e-015 3.18055e-015 6.36111e-015 
-0.616768 17.056 -31.4898 -0.000776331 -29.2093 179.998 0 8.7983 -4.7612 0.13518 1.12664 -0.290466 -1.11022e-016 8.0291 0.4195 0.276151 2.25256 -0.583756 0 9.9351 -2.2114 0.276151 2.25256 -0.583756 0 22.3885 -0.4656 -1.54949e-006 -21.1236 2.08188e-005 -0.0001 12.643 3.4389 0.330472 0.124143 -3.11163e-007 2.2603 21.606 7.4023 -21.9142 23.9927 -37.0213 13.5163 -1.1332 -5.0146 47.0343 -8.69688 24.9478 -0.0995 -28.05 -0.2431 -1.56489 -37.2566 1.00286 0.0679 -23.3996 -0.1402 -9.37291 -4.57531 -1.69275 0.7932 -9.069 2.5189 1.59028e-015 0 -3.18055e-015 -0.8272 -3.3923 0.5977 3.97569e-015 0 3.18055e-015 -0.5649 -2.3158 0.4082 7.95139e-016 0 3.18055e-015 0.9159 -9.2044 0.2193 1.59028e-015 0 -3.18055e-015 0.0117 -4.1944 -0.0248 -0.0128151 0.00232067 8.37939e-005 0.0071 -2.3249 -0.0142 2.38542e-015 -7.95139e-015 3.18055e-015 0.6113 -8.7231 -2.0637 1.59028e-015 0 -3.18055e-015 -0.1927 -3.8059 -0.2383 -0.0160631 0.00300114 0.000864143 -0.1091 -2.1688 -0.1362 6.36111e-015 1.59028e-015 -3.18055e-015 -0.6151 -8.0947 -3.5641 1.59028e-015 0 -3.18055e-015 -0.4882 -2.341 -0.6462 -0.0126078 0.00312429 0.00283176 -0.3575 -1.7167 -0.4742 -3.97569e-015 -2.38542e-014 -6.36111e-015 -1.42 -1.8761 1.4223 1.59028e-015 0 -3.18055e-015 -1.1471 -3.4929 2.6334 3.97569e-015 0 3.18055e-015 -0.823 -2.3 1.6571 7.95139e-016 0 3.18055e-015 -2.2603 21.606 7.4023 39.0441 6.91813 -16.5155 -13.5187 -1.1334 -5.0155 -43.2067 13.1319 40.8118 0.0994 -28.0499 -0.2431 15.2001 -47.1764 -70.7901 -0.0679 -23.3996 -0.1402 29.4114 -7.63468 -46.8933 -0.7932 -9.0691 2.5189 6.85717e-007 2.27389e-006 4.83104e-007 0.8272 -3.3923 0.5977 -3.23221e-006 7.367e-006 -1.06996e-006 0.565 -2.3158 0.4082 6.85717e-007 1.72172e-006 4.83104e-007 -0.916 -9.2044 0.2193 6.85717e-007 2.27389e-006 4.83104e-007 -0.0117 -4.1944 -0.0248 0.0129504 0.00231159 -8.80524e-005 -0.0071 -2.3249 -0.0142 5.41407e-007 4.65297e-006 -1.72247e-006 -0.6113 -8.7231 -2.0637 6.85717e-007 2.27389e-006 4.83104e-007 0.1927 -3.8059 -0.2383 0.0163224 0.00304945 -0.000865862 0.1091 -2.1688 -0.1362 1.66627e-006 7.47035e-007 -6.30538e-007 0.6151 -8.0947 -3.564 6.85717e-007 2.27389e-006 4.83104e-007 0.4882 -2.341 -0.6462 0.0145762 0.00367656 -0.00326146 0.3574 -1.7166 -0.4742 3.18055e-015 3.18055e-015 -6.36111e-015 1.4199 -1.8761 1.4221 6.85717e-007 2.27389e-006 4.83104e-007 1.1472 -3.4929 2.6336 -3.23221e-006 7.367e-006 -1.06996e-006 0.8229 -2.3 1.6571 6.85717e-007 1.72172e-006 4.83104e-007 -9.412 3.9771 -0.7758 -72.4833 -37.1812 -83.2459 -0.7531 -40.938 0 -133.308 30.4795 157.46 0 -40.1986 -1.11022e-015 31.5222 44.577 -25.7727 3.55271e-015 -4.4182 9.239 7.4822e-007 2.83845e-008 1.4416e-006 9.4119 3.9773 -0.7758 72.394 -37.1696 83.1526 0.7532 -40.9383 -7.10543e-015 133.241 30.5601 -157.413 -7.10543e-015 -40.1986 4.44089e-016 -31.228 44.0776 25.55 0 -4.4182 9.239 5.08363e-006 4.09052e-008 -5.72887e-007 
